<?xml version="1.0" encoding="UTF-8" standalone="no"?>
<svg
   xmlns:dc="http://purl.org/dc/elements/1.1/"
   xmlns:cc="http://creativecommons.org/ns#"
   xmlns:rdf="http://www.w3.org/1999/02/22-rdf-syntax-ns#"
   xmlns:svg="http://www.w3.org/2000/svg"
   xmlns="http://www.w3.org/2000/svg"
   id="svg924"
   version="1.1"
   viewBox="0 0 16.933333 16.933334"
   height="64"
   width="64">
  <defs
     id="defs918" />
  <metadata
     id="metadata921">
    <rdf:RDF>
      <cc:Work
         rdf:about="">
        <dc:format>image/svg+xml</dc:format>
        <dc:type
           rdf:resource="http://purl.org/dc/dcmitype/StillImage" />
        <dc:title></dc:title>
      </cc:Work>
    </rdf:RDF>
  </metadata>
  <g
     id="layer1" />
  <path
     id="rect1469"
     d="m 6.6238849,4.4002481 c -0.1270584,0 -0.2540407,0.048369 -0.3513997,0.1457277 l -3.576009,3.5765258 c -0.098689,0.098689 -0.147076,0.2277782 -0.1457275,0.3565673 -0.00148,0.1289495 0.046914,0.2582712 0.1457275,0.357084 l 3.576009,3.5760091 c 0.1947177,0.194718 0.5080818,0.194718 0.7027995,0 l 0.1116211,-0.111621 c 0.1947177,-0.194718 0.1947177,-0.508082 0,-0.7028 L 4.532023,9.0423419 h 9.443351 c 0.305948,0 0.552421,-0.2459561 0.552421,-0.5519041 v -0.047543 c 0,-0.305948 -0.246473,-0.5519041 -0.552421,-0.5519041 H 4.5568277 L 7.0869058,5.3609131 c 0.1947177,-0.1947177 0.1947177,-0.5085985 0,-0.7033162 L 6.9752847,4.5459758 C 6.877926,4.4486168 6.7509437,4.4002481 6.6238849,4.4002481 Z"
     style="opacity:1;fill:#000000;fill-opacity:1;stroke:none;stroke-width:0.14815958;stroke-miterlimit:4;stroke-dasharray:none;stroke-opacity:1" />
</svg>
