<?xml version="1.0" encoding="UTF-8" standalone="no"?>
<svg
   id="svg924"
   version="1.1"
   viewBox="0 0 16.933333 16.933334"
   height="64"
   width="64"
   sodipodi:docname="next.svg"
   inkscape:version="1.1.1 (eb90963e84, 2021-10-02)"
   xmlns:inkscape="http://www.inkscape.org/namespaces/inkscape"
   xmlns:sodipodi="http://sodipodi.sourceforge.net/DTD/sodipodi-0.dtd"
   xmlns="http://www.w3.org/2000/svg"
   xmlns:svg="http://www.w3.org/2000/svg"
   xmlns:rdf="http://www.w3.org/1999/02/22-rdf-syntax-ns#"
   xmlns:cc="http://creativecommons.org/ns#"
   xmlns:dc="http://purl.org/dc/elements/1.1/">
  <sodipodi:namedview
     id="namedview877"
     pagecolor="#ffffff"
     bordercolor="#666666"
     borderopacity="1.0"
     inkscape:pageshadow="2"
     inkscape:pageopacity="0.0"
     inkscape:pagecheckerboard="0"
     showgrid="false"
     inkscape:zoom="20.078125"
     inkscape:cx="30.954086"
     inkscape:cy="34.589883"
     inkscape:window-width="2560"
     inkscape:window-height="1536"
     inkscape:window-x="0"
     inkscape:window-y="27"
     inkscape:window-maximized="1"
     inkscape:current-layer="svg924" />
  <defs
     id="defs918" />
  <metadata
     id="metadata921">
    <rdf:RDF>
      <cc:Work
         rdf:about="">
        <dc:format>image/svg+xml</dc:format>
        <dc:type
           rdf:resource="http://purl.org/dc/dcmitype/StillImage" />
      </cc:Work>
    </rdf:RDF>
  </metadata>
  <g
     id="layer1" />
  <path
     id="rect1469"
     d="m 10.454626,12.557578 c 0.127059,0 0.254041,-0.04837 0.3514,-0.145728 l 3.576009,-3.5765256 c 0.09869,-0.098689 0.147076,-0.2277782 0.145727,-0.3565673 0.0015,-0.1289495 -0.04691,-0.2582712 -0.145727,-0.357084 L 10.806026,4.545664 c -0.194718,-0.194718 -0.508082,-0.194718 -0.7028,0 L 9.9916053,4.657285 c -0.1947177,0.194718 -0.1947177,0.508082 0,0.7028 L 12.546488,7.9154841 H 3.1031371 c -0.305948,0 -0.552421,0.2459561 -0.552421,0.5519041 v 0.047543 c 0,0.305948 0.246473,0.5519041 0.552421,0.5519041 H 12.521683 L 9.9916053,11.596913 c -0.1947177,0.194718 -0.1947177,0.508598 0,0.703316 l 0.1116207,0.111621 c 0.09736,0.09736 0.224341,0.145728 0.3514,0.145728 z"
     style="opacity:1;fill:#ffffff;fill-opacity:1;stroke:#000000;stroke-width:0.14816;stroke-miterlimit:4;stroke-dasharray:none;stroke-opacity:1" />
</svg>
